<svg width="100" height="100" viewBox="0 0 100 100" fill="none" xmlns="http://www.w3.org/2000/svg">
<path d="M98.4177 47.8994L52.9645 11.9851C51.2589 10.6391 48.7413 10.6391 47.0357 11.9851L1.58215 47.8994C-0.321005 49.403 -0.537847 52.0408 1.09829 53.7894C2.73653 55.537 5.60775 55.7366 7.5088 54.233L49.9999 20.6585L92.4911 54.2333C93.3482 54.9113 94.4051 55.243 95.451 55.243C96.7293 55.243 98.003 54.7507 98.9016 53.7894C100.538 52.0411 100.321 49.403 98.4177 47.8994Z" fill="white"/>
<path d="M66.3892 58.1313H33.6117L28.4707 71.36H71.5303L66.3892 58.1313Z" fill="white"/>
<path d="M73.6762 79.7185H62.3092C61.7864 79.7185 61.3633 80.1034 61.3633 80.588V83.7035C61.3633 84.1838 61.7864 84.5759 62.3092 84.5759H73.6762C74.1969 84.5759 74.6225 84.1842 74.6225 83.7035V80.588C74.6225 80.1034 74.1969 79.7185 73.6762 79.7185Z" fill="white"/>
<path d="M43.3722 80.843C42.847 80.843 42.4238 81.2289 42.4238 81.7095V82.58C42.4238 83.0606 42.847 83.4523 43.3722 83.4523H56.6273C57.1526 83.4523 57.5757 83.0606 57.5757 82.58V81.7095C57.5757 81.2289 57.1526 80.843 56.6273 80.843H43.3722Z" fill="white"/>
<path d="M38.6375 83.7035V80.588C38.6375 80.1034 38.2144 79.7185 37.6912 79.7185H26.3242C25.8035 79.7185 25.3779 80.1034 25.3779 80.588V83.7035C25.3779 84.1838 25.8032 84.5759 26.3242 84.5759H37.6912C38.2144 84.5755 38.6375 84.1838 38.6375 83.7035Z" fill="white"/>
<path d="M51.4842 26.5159C50.6291 25.8409 49.3705 25.8409 48.5154 26.5159L14.2622 53.6611C13.7608 54.0579 13.4766 54.635 13.4766 55.2434V94.5015C13.4766 95.6559 14.4923 96.5902 15.7467 96.5902H20.8334V89.8846C19.8916 88.6824 19.3187 87.2207 19.3187 85.6275V78.6669C19.3187 75.9959 20.9029 73.6789 23.2379 72.4049L29.8699 55.341C30.1913 54.5096 31.0481 53.9554 32.0099 53.9554H67.9905C68.9519 53.9554 69.8091 54.5096 70.1301 55.341L76.762 72.4049C79.0971 73.6789 80.6813 75.9959 80.6813 78.6669V85.6275C80.6813 87.2207 80.1083 88.6821 79.1666 89.8846V96.5902H84.2532C85.5076 96.5902 86.5234 95.6562 86.5234 94.5015V55.243C86.5234 54.635 86.2388 54.0576 85.7378 53.6608L51.4842 26.5159Z" fill="white"/>
<path d="M68.1811 92.935H31.8184V96.5899H68.1811V92.935Z" fill="white"/>
</svg>
