<svg width="35" height="24" viewBox="0 0 35 24" fill="none" xmlns="http://www.w3.org/2000/svg">
<path d="M34.4529 3.76217C34.4612 4.21531 34.3895 4.66588 34.2417 5.08666C34.094 5.50744 33.8734 5.89012 33.5931 6.21287L19.6016 22.5114C19.0395 23.1655 18.2705 23.5391 17.4632 23.5502C16.6562 23.5613 15.8772 23.2091 15.2969 22.5708L0.98315 6.66261C0.603065 6.01902 0.424231 5.25072 0.475303 4.48017C0.526335 3.70962 0.804355 2.98149 1.26476 2.41282C1.72516 1.84416 2.34127 1.46799 3.01439 1.34413C3.68751 1.22026 4.37859 1.35615 4.97693 1.72983L17.3503 15.364L29.343 1.39379C29.9055 0.739505 30.6745 0.365831 31.4814 0.354703C32.2888 0.343569 33.0678 0.695893 33.6477 1.33442C34.1877 1.99283 34.4771 2.86544 34.4529 3.76217Z" fill="white"/>
</svg>
