<svg width="35" height="24" viewBox="0 0 35 24" fill="none" xmlns="http://www.w3.org/2000/svg">
<path d="M0.606527 20.2996C0.598772 19.8464 0.67107 19.3959 0.819294 18.9753C0.967515 18.5547 1.18852 18.1723 1.46918 17.8498L15.4797 1.56761C16.0425 0.914222 16.812 0.541495 17.6193 0.531301C18.4263 0.521112 19.2049 0.874293 19.7845 1.51326L34.0797 17.4381C34.459 18.0821 34.6369 18.8506 34.585 19.6211C34.533 20.3916 34.2542 21.1194 33.7931 21.6876C33.3321 22.2557 32.7155 22.6311 32.0422 22.7542C31.369 22.8773 30.6781 22.7406 30.0802 22.3662L17.7227 8.71764L5.71369 22.6739C5.15045 23.3275 4.38099 23.7003 3.57405 23.7105C2.7667 23.7207 1.98808 23.3674 1.40893 22.7282C0.869735 22.0692 0.581294 21.1962 0.606527 20.2996Z" fill="white"/>
</svg>
