<svg width="23" height="34" viewBox="0 0 23 34" fill="none" xmlns="http://www.w3.org/2000/svg">
<path d="M3.44812 0.00320816C3.90133 0.00117493 4.35086 0.079155 4.76957 0.232677C5.18828 0.386196 5.56787 0.612011 5.88673 0.896717L21.9908 15.1117C22.637 15.6827 23 16.4568 23 17.2642C23 18.0713 22.637 18.8454 21.9908 19.4168L5.88673 33.5098C5.23797 33.881 4.46728 34.0492 3.6975 33.9875C2.92772 33.9259 2.2035 33.6378 1.64124 33.1696C1.07897 32.7014 0.711338 32.0802 0.596769 31.4054C0.482201 30.7307 0.6276 30.0415 1.0095 29.4484L14.813 17.2642L1.0095 5.07998C0.363033 4.50854 0 3.73443 0 2.92743C0 2.12002 0.363033 1.34592 1.0095 0.774879C1.67529 0.244053 2.55181 -0.0333443 3.44812 0.00320816Z" fill="white"/>
</svg>
