<svg width="24" height="34" viewBox="0 0 24 34" fill="none" xmlns="http://www.w3.org/2000/svg">
<path d="M20.402 33.9968C19.929 33.9988 19.46 33.9208 19.0231 33.7673C18.5861 33.6138 18.19 33.388 17.8573 33.1033L1.0531 18.8883C0.378765 18.3173 0 17.5432 0 16.7358C0 15.9287 0.378765 15.1546 1.0531 14.5832L17.8573 0.490184C18.5343 0.119011 19.3385 -0.0492116 20.1417 0.0124814C20.945 0.0741338 21.7007 0.362169 22.2874 0.83037C22.8741 1.29857 23.2577 1.91981 23.3773 2.59457C23.4968 3.26934 23.3451 3.95848 22.9466 4.55161L8.54295 16.7358L22.9466 28.92C23.6212 29.4915 24 30.2656 24 31.0726C24 31.88 23.6212 32.6541 22.9466 33.2251C22.2519 33.7559 21.3372 34.0333 20.402 33.9968Z" fill="white"/>
</svg>
