<svg width="31" height="31" viewBox="0 0 31 31" fill="none" xmlns="http://www.w3.org/2000/svg">
<path d="M0.876399 8.29303C0.876399 9.55089 1.33671 10.9335 1.92146 12.4005C2.50622 13.8676 3.25957 15.2501 3.84567 16.2974C5.43534 19.0639 7.48399 21.7875 9.82568 24.0497C12.1674 26.312 14.9279 28.1988 18.0216 29.3306C19.82 30.0426 21.6185 30.8392 23.6256 30.8392C24.6292 30.8392 26.0516 30.4624 27.3469 29.9166C28.6021 29.3721 29.7301 28.534 30.1489 27.5283C30.3162 27.1515 30.5249 26.6486 30.6507 26.0612C30.7765 25.5168 30.8594 24.971 30.8594 24.5942C30.8594 24.385 30.8594 24.1744 30.818 24.1329C30.6922 23.8808 30.3991 23.6716 30.0646 23.4624C29.3113 23.0856 29.1868 22.9595 28.0574 22.289C26.8866 21.6185 25.6743 20.8635 24.6279 20.3191C24.1261 20.0254 23.7915 19.8994 23.6658 19.8994C22.9967 19.8994 22.1604 20.822 21.4499 21.8277C20.6965 22.8335 19.8602 23.7561 19.2754 23.7561C18.9824 23.7561 18.6893 23.63 18.3548 23.4208C18.0203 23.2116 17.6857 23.044 17.477 22.9179C13.7972 20.822 11.3297 18.3505 9.23959 14.7043C8.98803 14.2846 8.40327 13.4049 8.40327 12.9436C8.40327 12.3992 9.15663 11.7702 9.90865 11.0997C10.6192 10.4708 11.3725 9.71717 11.3725 8.79457C11.3725 8.66851 11.2882 8.29169 11.121 7.74725C10.745 6.65702 10.2432 5.40051 9.82435 4.18556C9.6156 3.59821 9.44834 3.17982 9.40552 2.97062C9.32122 2.84457 9.27973 2.67694 9.23825 2.46775C9.19677 2.25855 9.11247 2.09093 9.07099 1.9233C8.94521 1.54648 8.73646 1.25281 8.52772 1.08518C8.31897 1.0007 7.81718 0.875986 7.31539 0.833074C6.8136 0.833074 6.2275 0.791504 5.97728 0.791504C5.8515 0.791504 5.68423 0.791503 5.51697 0.833074H4.97369C3.63558 1.42043 2.67348 2.5938 1.96295 3.97637C1.29389 5.35894 0.875061 6.91047 0.875061 8.29303H0.876399Z" fill="black"/>
</svg>
